<svg width="180" height="39" viewBox="0 0 180 39" fill="none" xmlns="http://www.w3.org/2000/svg">
<path d="M30 19L7.5 31.9904L7.5 6.00962L30 19Z" fill="url(#paint0_linear_1_6)"/>
<path d="M14.8182 31V7.72727H17.6364V28.5H28.4545V31H14.8182ZM39.0145 31V13.5455H41.6964V31H39.0145ZM40.3782 10.6364C39.8555 10.6364 39.4047 10.4583 39.0259 10.1023C38.6547 9.74621 38.4691 9.31818 38.4691 8.81818C38.4691 8.31818 38.6547 7.89015 39.0259 7.53409C39.4047 7.17803 39.8555 7 40.3782 7C40.9009 7 41.3479 7.17803 41.7191 7.53409C42.0979 7.89015 42.2873 8.31818 42.2873 8.81818C42.2873 9.31818 42.0979 9.74621 41.7191 10.1023C41.3479 10.4583 40.9009 10.6364 40.3782 10.6364ZM65.5319 17.4545L63.1228 18.1364C62.9713 17.7348 62.7478 17.3447 62.4524 16.9659C62.1645 16.5795 61.7706 16.2614 61.2706 16.0114C60.7706 15.7614 60.1304 15.6364 59.3501 15.6364C58.2819 15.6364 57.3918 15.8826 56.6797 16.375C55.9751 16.8598 55.6228 17.4773 55.6228 18.2273C55.6228 18.8939 55.8653 19.4205 56.3501 19.8068C56.835 20.1932 57.5925 20.5152 58.6228 20.7727L61.2137 21.4091C62.7744 21.7879 63.9372 22.3674 64.7024 23.1477C65.4675 23.9205 65.8501 24.9167 65.8501 26.1364C65.8501 27.1364 65.5622 28.0303 64.9865 28.8182C64.4183 29.6061 63.6228 30.2273 62.6001 30.6818C61.5774 31.1364 60.388 31.3636 59.0319 31.3636C57.2516 31.3636 55.7781 30.9773 54.6115 30.2045C53.4448 29.4318 52.7062 28.303 52.3956 26.8182L54.941 26.1818C55.1834 27.1212 55.6418 27.8258 56.316 28.2955C56.9978 28.7652 57.888 29 58.9865 29C60.2365 29 61.2289 28.7348 61.9637 28.2045C62.7062 27.6667 63.0774 27.0227 63.0774 26.2727C63.0774 25.6667 62.8653 25.1591 62.441 24.75C62.0168 24.3333 61.3653 24.0227 60.4865 23.8182L57.5774 23.1364C55.9789 22.7576 54.8047 22.1705 54.0547 21.375C53.3122 20.572 52.941 19.5682 52.941 18.3636C52.941 17.3788 53.2175 16.5076 53.7706 15.75C54.3312 14.9924 55.0925 14.3977 56.0547 13.9659C57.0244 13.5341 58.1228 13.3182 59.3501 13.3182C61.0774 13.3182 62.4334 13.697 63.4183 14.4545C64.4107 15.2121 65.1153 16.2121 65.5319 17.4545ZM84.038 13.5455V15.8182H74.9925V13.5455H84.038ZM77.6289 9.36364H80.3107V26C80.3107 26.7576 80.4205 27.3258 80.6402 27.7045C80.8675 28.0758 81.1554 28.3258 81.5039 28.4545C81.8599 28.5758 82.2349 28.6364 82.6289 28.6364C82.9243 28.6364 83.1667 28.6212 83.3561 28.5909C83.5455 28.553 83.697 28.5227 83.8107 28.5L84.3561 30.9091C84.1743 30.9773 83.9205 31.0455 83.5948 31.1136C83.269 31.1894 82.8561 31.2273 82.3561 31.2273C81.5986 31.2273 80.8561 31.0644 80.1289 30.7386C79.4092 30.4129 78.8107 29.9167 78.3334 29.25C77.8637 28.5833 77.6289 27.7424 77.6289 26.7273V9.36364ZM101.763 31.3636C100.081 31.3636 98.6301 30.9924 97.4105 30.25C96.1983 29.5 95.2627 28.4545 94.6036 27.1136C93.9521 25.7652 93.6264 24.197 93.6264 22.4091C93.6264 20.6212 93.9521 19.0455 94.6036 17.6818C95.2627 16.3106 96.1794 15.2424 97.3536 14.4773C98.5355 13.7045 99.9142 13.3182 101.49 13.3182C102.399 13.3182 103.297 13.4697 104.183 13.7727C105.07 14.0758 105.876 14.5682 106.604 15.25C107.331 15.9242 107.91 16.8182 108.342 17.9318C108.774 19.0455 108.99 20.4167 108.99 22.0455V23.1818H95.5355V20.8636H106.263C106.263 19.8788 106.066 19 105.672 18.2273C105.285 17.4545 104.732 16.8447 104.013 16.3977C103.301 15.9508 102.46 15.7273 101.49 15.7273C100.422 15.7273 99.4976 15.9924 98.7173 16.5227C97.9445 17.0455 97.3498 17.7273 96.9332 18.5682C96.5165 19.4091 96.3082 20.3106 96.3082 21.2727V22.8182C96.3082 24.1364 96.5355 25.2538 96.99 26.1705C97.4521 27.0795 98.0923 27.7727 98.9105 28.25C99.7286 28.7197 100.679 28.9545 101.763 28.9545C102.467 28.9545 103.104 28.8561 103.672 28.6591C104.248 28.4545 104.744 28.1515 105.16 27.75C105.577 27.3409 105.899 26.8333 106.126 26.2273L108.717 26.9545C108.445 27.8333 107.986 28.6061 107.342 29.2727C106.698 29.9318 105.903 30.447 104.956 30.8182C104.009 31.1818 102.945 31.3636 101.763 31.3636ZM122.311 20.5V31H119.63V13.5455H122.22V16.2727H122.448C122.857 15.3864 123.478 14.6742 124.311 14.1364C125.145 13.5909 126.22 13.3182 127.539 13.3182C128.72 13.3182 129.755 13.5606 130.641 14.0455C131.527 14.5227 132.217 15.25 132.709 16.2273C133.202 17.197 133.448 18.4242 133.448 19.9091V31H130.766V20.0909C130.766 18.7197 130.41 17.6515 129.698 16.8864C128.986 16.1136 128.008 15.7273 126.766 15.7273C125.91 15.7273 125.145 15.9129 124.47 16.2841C123.804 16.6553 123.277 17.197 122.891 17.9091C122.505 18.6212 122.311 19.4848 122.311 20.5ZM152.226 31.3636C150.545 31.3636 149.094 30.9924 147.874 30.25C146.662 29.5 145.726 28.4545 145.067 27.1136C144.416 25.7652 144.09 24.197 144.09 22.4091C144.09 20.6212 144.416 19.0455 145.067 17.6818C145.726 16.3106 146.643 15.2424 147.817 14.4773C148.999 13.7045 150.378 13.3182 151.954 13.3182C152.863 13.3182 153.761 13.4697 154.647 13.7727C155.533 14.0758 156.34 14.5682 157.067 15.25C157.795 15.9242 158.374 16.8182 158.806 17.9318C159.238 19.0455 159.454 20.4167 159.454 22.0455V23.1818H145.999V20.8636H156.726C156.726 19.8788 156.53 19 156.136 18.2273C155.749 17.4545 155.196 16.8447 154.476 16.3977C153.764 15.9508 152.923 15.7273 151.954 15.7273C150.886 15.7273 149.961 15.9924 149.181 16.5227C148.408 17.0455 147.814 17.7273 147.397 18.5682C146.98 19.4091 146.772 20.3106 146.772 21.2727V22.8182C146.772 24.1364 146.999 25.2538 147.454 26.1705C147.916 27.0795 148.556 27.7727 149.374 28.25C150.192 28.7197 151.143 28.9545 152.226 28.9545C152.931 28.9545 153.567 28.8561 154.136 28.6591C154.711 28.4545 155.208 28.1515 155.624 27.75C156.041 27.3409 156.363 26.8333 156.59 26.2273L159.181 26.9545C158.908 27.8333 158.45 28.6061 157.806 29.2727C157.162 29.9318 156.367 30.447 155.42 30.8182C154.473 31.1818 153.408 31.3636 152.226 31.3636ZM170.093 31V13.5455H172.684V16.1818H172.866C173.184 15.3182 173.76 14.6174 174.593 14.0795C175.427 13.5417 176.366 13.2727 177.411 13.2727C177.608 13.2727 177.855 13.2765 178.15 13.2841C178.446 13.2917 178.669 13.303 178.821 13.3182V16.0455C178.73 16.0227 178.521 15.9886 178.196 15.9432C177.877 15.8902 177.54 15.8636 177.184 15.8636C176.336 15.8636 175.578 16.0417 174.911 16.3977C174.252 16.7462 173.73 17.2311 173.343 17.8523C172.965 18.4659 172.775 19.1667 172.775 19.9545V31H170.093Z" fill="white"/>
<defs>
<linearGradient id="paint0_linear_1_6" x1="30" y1="19" x2="1.25168e-06" y2="19" gradientUnits="userSpaceOnUse">
<stop stop-color="#FF0F3E"/>
<stop offset="1" stop-color="#E9635B"/>
</linearGradient>
</defs>
</svg>
